<svg xmlns="http://www.w3.org/2000/svg" width="960" height="520" viewBox="0 0 960 520" role="img"><title>Held-out mean score by training seed</title><rect width="960" height="520" fill="#101216"/><style>text{font-family:ui-monospace,monospace;fill:#d9d5ca}.axis{stroke:#555b62;stroke-width:1}.label{font-size:13px}.title{font-size:22px;font-weight:700}</style><text x="56" y="42" class="title">Held-out mean score by training seed</text><rect x="90.0" y="270.2" width="72" height="179.8" fill="#ff7a45"/><text x="90.0" y="476" class="label">s13</text><rect x="130.0" y="218.1" width="72" height="231.9" fill="#4dc9b0"/><text x="130.0" y="476" class="label">s31</text><rect x="170.0" y="291.6" width="72" height="158.4" fill="#73a8ff"/><text x="170.0" y="476" class="label">s53</text><rect x="210.0" y="279.6" width="72" height="170.4" fill="#d28bff"/><text x="210.0" y="476" class="label">s73</text><rect x="250.0" y="237.5" width="72" height="212.5" fill="#f0c75e"/><text x="250.0" y="476" class="label">s97</text><rect x="290.0" y="173.5" width="72" height="276.5" fill="#e8668a"/><text x="290.0" y="476" class="label">s13</text><rect x="330.0" y="245.0" width="72" height="205.0" fill="#ff7a45"/><text x="330.0" y="476" class="label">s31</text><rect x="370.0" y="182.0" width="72" height="268.0" fill="#4dc9b0"/><text x="370.0" y="476" class="label">s53</text><rect x="410.0" y="177.1" width="72" height="272.9" fill="#73a8ff"/><text x="410.0" y="476" class="label">s73</text><rect x="450.0" y="249.8" width="72" height="200.2" fill="#d28bff"/><text x="450.0" y="476" class="label">s97</text><rect x="490.0" y="189.8" width="72" height="260.2" fill="#f0c75e"/><text x="490.0" y="476" class="label">s13</text><rect x="530.0" y="218.3" width="72" height="231.7" fill="#e8668a"/><text x="530.0" y="476" class="label">s31</text><rect x="570.0" y="169.0" width="72" height="281.0" fill="#ff7a45"/><text x="570.0" y="476" class="label">s53</text><rect x="610.0" y="168.4" width="72" height="281.6" fill="#4dc9b0"/><text x="610.0" y="476" class="label">s73</text><rect x="650.0" y="120.0" width="72" height="330.0" fill="#73a8ff"/><text x="650.0" y="476" class="label">s97</text><rect x="690.0" y="270.7" width="72" height="179.3" fill="#d28bff"/><text x="690.0" y="476" class="label">s13</text><rect x="730.0" y="140.0" width="72" height="310.0" fill="#f0c75e"/><text x="730.0" y="476" class="label">s31</text><rect x="770.0" y="271.4" width="72" height="178.6" fill="#e8668a"/><text x="770.0" y="476" class="label">s53</text><rect x="810.0" y="202.5" width="72" height="247.5" fill="#ff7a45"/><text x="810.0" y="476" class="label">s73</text><rect x="850.0" y="224.6" width="72" height="225.4" fill="#4dc9b0"/><text x="850.0" y="476" class="label">s97</text></svg>
